<mxfile host="app.diagrams.net" modified="2023-08-25T01:31:10.396Z" agent="Mozilla/5.0 (Windows NT 10.0; Win64; x64; rv:109.0) Gecko/20100101 Firefox/116.0" version="21.6.9" etag="QHKQ_Qmrxe9aNXqxiKIM" type="github">
  <diagram name="PÃ¡gina-1" id="Q117zJ_d94ubVQJW2mOW">
    <mxGraphModel>
      <root>
        <mxCell id="0" />
        <mxCell id="1" parent="0" />
      </root>
    </mxGraphModel>
  </diagram>
</mxfile>
